<?xml version="1.0" standalone="no"?>
<!DOCTYPE svg PUBLIC "-//W3C//DTD SVG 20010904//EN"
 "http://www.w3.org/TR/2001/REC-SVG-20010904/DTD/svg10.dtd">
<svg version="1.0" xmlns="http://www.w3.org/2000/svg"
 width="700.000000pt" height="700.000000pt" viewBox="0 0 700.000000 700.000000"
 preserveAspectRatio="xMidYMid meet">
<metadata>
Created by potrace 1.14, written by Peter Selinger 2001-2017
</metadata>
<g transform="translate(0.000000,700.000000) scale(0.100000,-0.100000)"
fill="#000000" stroke="none">
<path d="M3377 6704 c-211 -67 -342 -293 -393 -678 -22 -163 -22 -509 0 -672
36 -269 109 -459 220 -569 35 -36 86 -74 121 -91 56 -27 68 -29 175 -29 108 0
119 2 180 31 178 85 286 288 337 634 24 160 24 560 0 720 -50 338 -160 546
-335 632 -58 29 -76 33 -161 35 -65 2 -111 -2 -144 -13z"/>
<path d="M1954 6506 c-473 -253 -812 -697 -928 -1217 -47 -211 -47 -243 -43
-1794 3 -1330 5 -1468 20 -1545 84 -413 241 -714 517 -990 277 -277 587 -438
990 -516 65 -12 170 -17 443 -21 l357 -5 0 936 c0 673 -3 936 -11 936 -6 0
-218 -126 -470 -280 -253 -154 -464 -280 -469 -280 -7 0 -9 152 -8 426 l3 426
477 294 478 294 555 0 555 0 0 -1365 0 -1365 26 0 c43 0 250 49 343 81 563
195 1015 680 1166 1251 62 237 58 125 62 1723 3 1019 1 1493 -7 1570 -57 571
-373 1077 -860 1382 -68 42 -190 106 -190 99 0 -2 7 -20 16 -41 25 -60 81
-291 101 -415 26 -165 26 -635 0 -800 -124 -782 -546 -1264 -1229 -1402 -153
-31 -517 -33 -673 -4 -209 39 -412 120 -585 234 -111 73 -287 250 -368 370
-164 240 -268 541 -308 888 -20 173 -14 564 10 719 20 121 71 331 97 398 11
27 18 51 17 53 -2 1 -40 -16 -84 -40z"/>
</g>
</svg>
