<svg width="50" height="50" viewBox="0 0 50 50" fill="none" xmlns="http://www.w3.org/2000/svg">
<rect width="50" height="50" fill="white"/>
<path fill-rule="evenodd" clip-rule="evenodd" d="M36.4545 9.37239C36.4545 17.4283 32.1103 22.4545 25.0177 22.4545C17.9251 22.4545 13.5455 17.4283 13.5455 9.37239V9.33737C13.5455 7.0299 13.9048 4.97243 14.5842 3.21106C10.1056 5.29053 7 9.82804 7 15.0909V33.9091C7 41.139 12.861 47 20.0909 47H23.6219V33.6526H23.4715L16.8182 37.7067V31.5563L23.6219 27.3636H31.5909V46.893C38.0265 46.0676 43 40.5692 43 33.9091V15.0909C43 9.8314 39.8983 5.29633 35.4243 3.21505C36.0987 4.97554 36.4545 7.03164 36.4545 9.33737V9.37239ZM24.6662 2H25.3692C27.6271 2.23715 28.8477 4.80372 28.8477 9.33737V9.37239C28.8477 14.1359 27.5001 16.7453 25.0177 16.7453C22.5353 16.7453 21.17 14.1359 21.17 9.37239V9.33737C21.17 4.80372 22.4067 2.23715 24.6662 2Z" fill="black"/>
</svg>
